<svg xmlns="http://www.w3.org/2000/svg" width="125.728" height="33.987" viewBox="0 0 125.728 33.987">
  <g id="Group_11612" data-name="Group 11612" transform="translate(-22.008 -30.389)">
    <path id="Path_1214" data-name="Path 1214" d="M156,51.423l-3.645-11.814-3.621,11.814Zm2.137,7.107H146.528l-1.6,5.425H134.515l12-31.827a2.411,2.411,0,0,1,.54-.743,2.415,2.415,0,0,1,.911-.295h8.8a2.12,2.12,0,0,1,1.174.252,2.082,2.082,0,0,1,.456.786l12.015,31.825H159.755Z" transform="translate(-22.682 -0.141)" fill="#323e48"/>
    <path id="Path_1215" data-name="Path 1215" d="M87.07,44.408V37.726H82.593q-2.787,0-3.8.853a3.3,3.3,0,0,0-.361,4.348,2.853,2.853,0,0,0,1.6,1.1,10.414,10.414,0,0,0,2.745.384ZM97.306,63.955H87.07V50.615h-.9a4.3,4.3,0,0,0-2.5.764,7.633,7.633,0,0,0-1.847,2.533L76.384,63.955H64.867l4.926-9.527a11,11,0,0,1,1.352-2.171,7.772,7.772,0,0,1,1.709-1.594,10.128,10.128,0,0,1,2.654-1.211,12.315,12.315,0,0,1-3.577-1.3,8.753,8.753,0,0,1-4.386-7.936A9.013,9.013,0,0,1,69.073,34.9a7.665,7.665,0,0,1,4.027-3,24.745,24.745,0,0,1,7.222-.806H95.463a2.478,2.478,0,0,1,1.261.288,1.514,1.514,0,0,1,.581,1.09v8.9l8-9.281a3.735,3.735,0,0,1,1.066-.77,3.827,3.827,0,0,1,1.259-.224h10.079s.843-.058,1.1.246c.312.372-.16.832-.16.832L107.677,43.487l12.554,20.468H107.677l-6.95-13.518-3.421,3.57Z" transform="translate(-8.64 -0.141)" fill="#323e48"/>
    <path id="Path_1216" data-name="Path 1216" d="M32.2,47.449q0,4.977,1.844,7.154A6.327,6.327,0,0,0,39.1,56.774a6.292,6.292,0,0,0,5.085-2.129q1.8-2.128,1.8-7.643,0-4.641-1.889-6.772a6.385,6.385,0,0,0-5.083-2.151,6.2,6.2,0,0,0-4.95,2.174Q32.2,42.43,32.2,47.449M22.008,47.4q0-8.049,4.5-12.531t12.528-4.485q8.235,0,12.689,4.417,4.454,4.4,4.453,12.33A20.148,20.148,0,0,1,54.221,56.6,13.864,13.864,0,0,1,48.6,62.335a18.648,18.648,0,0,1-9.156,2.041A21.26,21.26,0,0,1,30.2,62.605,13.9,13.9,0,0,1,24.279,57a18.559,18.559,0,0,1-2.271-9.6" fill="#323e48"/>
  </g>
</svg>
