<svg xmlns="http://www.w3.org/2000/svg" viewBox="0 0 350 123">
    <path fill="none" d="M0 0h350v123H0z"/>
    <path d="M90.539 72.615 76.306 31.306a2.7 2.7 0 0 0-4.594-.93l-7.574 8.944 6.967 20.223a2.619 2.619 0 0 1-2.476 3.5H44.052l-7.658 9.044a2.472 2.472 0 0 0 1.929 4.032h49.741a2.619 2.619 0 0 0 2.476-3.5Z"/>
    <path fill="#ffeb00" d="m56.873 18.226 14.236 41.313a2.619 2.619 0 0 1-2.476 3.5H18.89a2.472 2.472 0 0 1-1.929-4.032l35.318-41.712a2.7 2.7 0 0 1 4.594.93Z"/>
    <path d="M198.236 98.104c-1.957-.593-2.814-.968-2.814-2.086 0-1 1.334-1.357 2.477-1.357a5.4 5.4 0 0 1 2.8.774.724.724 0 0 0 1.041-.282l.333-.663a.723.723 0 0 0-.251-.927 7.5 7.5 0 0 0-3.891-1.112c-2.836 0-4.742 1.454-4.742 3.618 0 2.813 2.378 3.524 4.287 4.1 2 .6 2.872.983 2.862 2.171s-1.406 1.618-2.721 1.618a5.537 5.537 0 0 1-3.465-1.439.764.764 0 0 0-.6-.215.721.721 0 0 0-.537.347l-.384.647a.719.719 0 0 0 .114.882 7.173 7.173 0 0 0 4.859 1.971c2.972 0 4.969-1.539 4.969-3.823.022-2.9-2.393-3.633-4.334-4.22m13.091-5.201a.722.722 0 0 0-.657-.421h-.786a.721.721 0 0 0-.658.423l-5.541 12.2a.721.721 0 0 0 .657 1.02h.8a.722.722 0 0 0 .658-.424l1.381-3.05h6.219l1.4 3.053a.722.722 0 0 0 .656.421h.8a.722.722 0 0 0 .657-1.021Zm-3.173 7.568 2.118-4.689 2.142 4.689Zm12.391-7.989h-.733a.722.722 0 0 0-.722.721v12.2a.721.721 0 0 0 .722.722h.733a.721.721 0 0 0 .722-.722v-12.2a.722.722 0 0 0-.722-.721m15.242 0h-.717a.721.721 0 0 0-.722.721v8.886l-6.858-9.313a.72.72 0 0 0-.581-.294h-.857a.721.721 0 0 0-.722.721v12.2a.721.721 0 0 0 .722.722h.733a.721.721 0 0 0 .723-.722v-8.882l6.841 9.31a.723.723 0 0 0 .582.293h.857a.721.721 0 0 0 .722-.722v-12.2a.722.722 0 0 0-.722-.721m12.601.001h-8.981a.721.721 0 0 0-.722.721v.717a.722.722 0 0 0 .722.72h3.4v10.763a.722.722 0 0 0 .723.722h.732a.722.722 0 0 0 .724-.722V94.644h3.4a.722.722 0 0 0 .722-.72v-.717a.722.722 0 0 0-.722-.721m5.375 6.65h-3.9a.722.722 0 0 0-.722.721v.594a.722.722 0 0 0 .722.721h3.9a.721.721 0 0 0 .721-.721v-.594a.721.721 0 0 0-.721-.721m15.18-.438h-2.846a.722.722 0 0 0-.723.721v.732a.722.722 0 0 0 .723.722h1.46v2.23a5.175 5.175 0 0 1-2.914.9 4.7 4.7 0 1 1 0-9.4 5.12 5.12 0 0 1 3.38 1.265.723.723 0 0 0 1.044-.085l.437-.54a.722.722 0 0 0-.086-1 7.245 7.245 0 0 0-4.775-1.784 6.842 6.842 0 1 0-.035 13.678 7.458 7.458 0 0 0 4.806-1.763.721.721 0 0 0 .251-.547v-4.415a.723.723 0 0 0-.722-.721m10.242-6.223a6.842 6.842 0 1 0 7.05 6.831 6.949 6.949 0 0 0-7.05-6.831m0 11.52a4.684 4.684 0 1 1 4.853-4.69 4.78 4.78 0 0 1-4.853 4.69m18.618-5.066a3.436 3.436 0 0 0 1.144-2.7c0-2.308-1.738-3.741-4.533-3.741h-5a.721.721 0 0 0-.721.721v12.2a.721.721 0 0 0 .721.721h5.037c3.2 0 5.109-1.5 5.109-4a3.572 3.572 0 0 0-1.755-3.206m-3.407-.9h-3.527v-3.375h3.525c1.082 0 2.372.29 2.372 1.67 0 1.132-.8 1.7-2.372 1.7m-3.525 2.163h3.525c1.114 0 2.983.242 2.983 1.862 0 1.6-1.621 1.932-2.983 1.932h-3.525Zm17.553-7.268a.722.722 0 0 0-.657-.421h-.786a.721.721 0 0 0-.658.423l-5.54 12.2a.722.722 0 0 0 .658 1.02h.8a.72.72 0 0 0 .658-.424l1.382-3.05h6.217l1.4 3.053a.721.721 0 0 0 .656.421h.8a.722.722 0 0 0 .658-1.021Zm-3.174 7.568 2.118-4.689 2.142 4.689Zm12.392-7.989h-.735a.722.722 0 0 0-.723.721v12.2a.722.722 0 0 0 .723.722h.735a.722.722 0 0 0 .723-.722v-12.2a.723.723 0 0 0-.723-.721m15.24 0h-.717a.721.721 0 0 0-.721.721v8.886l-6.859-9.313a.719.719 0 0 0-.582-.294h-.857a.722.722 0 0 0-.723.721v12.2a.722.722 0 0 0 .723.722h.734a.721.721 0 0 0 .722-.722v-8.882l6.842 9.31a.722.722 0 0 0 .581.293h.857a.721.721 0 0 0 .721-.722v-12.2a.721.721 0 0 0-.721-.721M179.046 31.906c-13.253 0-22.792 9.873-22.792 22.573 0 14.126 11.29 22.621 24.817 22.621a28.375 28.375 0 0 0 17.136-5.144 2.416 2.416 0 0 0 .352-3.779l-2.916-2.727a2.394 2.394 0 0 0-2.857-.318 22.766 22.766 0 0 1-11.386 3.316c-8.435 0-13.283-5.081-14.486-9.547h32.365a2.392 2.392 0 0 0 2.389-2.126 22.77 22.77 0 0 0 .122-2.3 22.323 22.323 0 0 0-22.745-22.573Zm0 8.512c6.87 0 11.147 4.833 12.349 10.1h-24.627c1.27-5.701 5.451-10.1 12.278-10.1Zm-31.014-7.523h5.491a2.4 2.4 0 0 1 2.272 3.178l-13.2 38.394a2.4 2.4 0 0 1-2.281 1.646h-7.6a2.4 2.4 0 0 1-2.291-1.676l-8.37-26.446-8.321 26.443a2.4 2.4 0 0 1-2.292 1.68h-7.593a2.4 2.4 0 0 1-2.281-1.646L88.368 36.076a2.4 2.4 0 0 1 2.272-3.178h5.5a2.4 2.4 0 0 1 2.292 1.678l9.266 29.5 9.4-29.507a2.4 2.4 0 0 1 2.289-1.672h5.387a2.4 2.4 0 0 1 2.289 1.671l9.45 29.649 9.219-29.635a2.4 2.4 0 0 1 2.3-1.687Zm183.242-.928a45.6 45.6 0 0 0-23.975 7.042 2.4 2.4 0 0 0-1.051 2.008v32.694a2.4 2.4 0 0 0 2.4 2.4h5.223a2.4 2.4 0 0 0 2.4-2.4V45.363a32.433 32.433 0 0 1 15.015-3.879 2.371 2.371 0 0 0 2.311-2.384v-4.728a2.38 2.38 0 0 0-2.323-2.405Zm-52.888-.061c-13.253 0-22.792 9.873-22.792 22.573 0 14.126 11.29 22.621 24.817 22.621a28.375 28.375 0 0 0 17.136-5.144 2.416 2.416 0 0 0 .352-3.779l-2.916-2.727a2.394 2.394 0 0 0-2.857-.318 22.766 22.766 0 0 1-11.386 3.316c-8.435 0-13.283-5.081-14.486-9.547h32.365a2.392 2.392 0 0 0 2.39-2.123 22.753 22.753 0 0 0 .122-2.3 22.323 22.323 0 0 0-22.745-22.573Zm0 8.512c6.87 0 11.147 4.833 12.349 10.1H266.11c1.269-5.701 5.45-10.1 12.276-10.1Zm-48.364-8.509a22.494 22.494 0 0 0-13.279 3.871V18.772a2.4 2.4 0 0 0-2.4-2.4h-5.038a2.4 2.4 0 0 0-2.4 2.4v45.567a5.5 5.5 0 0 0 1.05 3.014c4.032 6.072 12.95 9.748 20.174 9.748 9.7 0 15.018-3.422 18.674-7.709a22.5 22.5 0 0 0 5.4-14.863c0-12.285-9.417-22.62-22.179-22.62Zm-1.319 36.069a14.929 14.929 0 0 1-11.96-5.347V47.58a14.121 14.121 0 0 1 11.96-6.548 13.473 13.473 0 1 1 0 26.946Z"/>
</svg>
